<?xml version="1.0" encoding="UTF-8"?>
<svg width="93px" height="50px" viewBox="0 0 93 50" version="1.1" xmlns="http://www.w3.org/2000/svg" xmlns:xlink="http://www.w3.org/1999/xlink">
    <title>Plan de travail 1</title>
    <g id="Symbols" stroke="none" stroke-width="1" fill="none" fill-rule="evenodd">
        <g id="website/menu" transform="translate(-100.000000, -15.000000)" fill-rule="nonzero">
            <g id="Plan-de-travail-1" transform="translate(100.000000, 15.000000)">
                <g id="Group" transform="translate(0.000000, 44.020834)" fill="#BE1E2D">
                    <polygon id="Path" points="1.1011749 -1.35193405e-14 3.072825 4.55453551 5.05161014 -1.35193405e-14 6.15278504 5.73657423 5.53441469 5.73657423 4.83518052 2.066784 4.82091043 2.066784 3.072825 5.9601389 1.33187461 2.066784 1.31760453 2.066784 0.618370356 5.73657423 -6.75967023e-15 5.73657423"></polygon>
                    <polygon id="Path" points="7.07320554 0.309185178 7.77243971 0.309185178 9.15425962 2.72796461 10.5360795 0.309185178 11.2353137 0.309185178 9.4586881 3.40341531 9.4586881 5.73419588 8.85458783 5.73419588 8.85458783 3.40341531 7.07796223 0.309185178"></polygon>
                    <polygon id="Path" points="16.0918993 5.17290587 17.5878799 5.17290587 17.5878799 5.73419588 15.4854207 5.73419588 15.4854207 0.309185178 16.089521 0.309185178 16.089521 5.17290587"></polygon>
                    <path d="M24.2900633,3.03001475 C24.2900633,4.59258907 23.0081339,5.82932978 21.4622081,5.82932978 C19.9162822,5.82932978 18.6343529,4.59021072 18.6343529,3.03001475 C18.6343529,1.46981877 19.9162822,0.216429625 21.4622081,0.216429625 C23.0081339,0.216429625 24.2900633,1.47457546 24.2900633,3.03001475 Z M19.2384531,3.0228797 C19.2384531,4.24535033 20.2326024,5.26803977 21.4622081,5.26803977 C22.6918137,5.26803977 23.685963,4.24535033 23.685963,3.0228797 C23.685963,1.80040908 22.7060838,0.77771964 21.4622081,0.77771964 C20.2183323,0.77771964 19.2384531,1.79327403 19.2384531,3.0228797 Z" id="Shape"></path>
                    <path d="M30.8757076,3.00860962 C30.8899776,3.743519 30.8114922,4.34761927 30.3144175,4.92317937 C29.8173429,5.49873948 29.0634067,5.82932978 28.3070922,5.82932978 C26.7825715,5.82932978 25.5149122,4.56167055 25.5149122,3.03714979 C25.5149122,1.51262903 26.7825715,0.216429625 28.3427674,0.216429625 C29.2917281,0.216429625 30.0623127,0.642153832 30.6378728,1.38895495 L30.1978785,1.80040908 C29.7436141,1.16063359 29.1323788,0.77771964 28.3332541,0.77771964 C27.0965133,0.77771964 26.1166342,1.8218142 26.1166342,3.04428483 C26.1166342,3.61984493 26.3473339,4.16686486 26.7492746,4.57831898 C27.1440803,4.97312467 27.7196404,5.26803977 28.2904438,5.26803977 C29.2322694,5.26803977 30.2264187,4.57831898 30.2264187,3.56989963 L28.6138991,3.56989963 L28.6138991,3.00860962 L30.8733292,3.00860962 L30.8757076,3.00860962 Z" id="Path"></path>
                    <polygon id="Path" points="33.0709223 5.73419588 32.4668221 5.73419588 32.4668221 0.309185178 33.0709223 0.309185178"></polygon>
                    <path d="M37.3543262,1.36754983 C37.1378966,0.994149265 36.8786567,0.77771964 36.4196356,0.77771964 C35.9606146,0.77771964 35.5206203,1.12258003 35.5206203,1.61965466 C35.5206203,2.08818913 36.0034248,2.3022404 36.3696903,2.46872473 L36.7288208,2.62807401 C37.43519,2.93725919 38.0321553,3.28925463 38.0321553,4.15259478 C38.0321553,5.10155544 37.2687057,5.82932978 36.3268801,5.82932978 C35.4564049,5.82932978 34.8094944,5.26803977 34.635875,4.42610474 L35.2257052,4.25962042 C35.3041906,4.81377539 35.7299149,5.26803977 36.31261,5.26803977 C36.8953051,5.26803977 37.428055,4.82091043 37.428055,4.20967512 C37.428055,3.5984398 36.9309804,3.36060505 36.4267707,3.12990534 L36.0961804,2.98482614 C35.4635399,2.69704609 34.91652,2.37359083 34.91652,1.59587119 C34.91652,0.753936165 35.6300243,0.214051277 36.4339057,0.214051277 C37.038006,0.214051277 37.5493507,0.523236455 37.8371308,1.0559863 L37.3543262,1.36517148 L37.3543262,1.36754983 Z" id="Path"></path>
                    <polygon id="Path" points="41.0740617 5.73419588 40.4699615 5.73419588 40.4699615 0.870475194 39.159492 0.870475194 39.159492 0.309185178 42.3988013 0.309185178 42.3988013 0.870475194 41.0740617 0.870475194"></polygon>
                    <polygon id="Path" points="44.3561813 5.73419588 43.7520811 5.73419588 43.7520811 0.309185178 44.3561813 0.309185178"></polygon>
                    <path d="M50.3163202,1.49598059 C49.883461,1.04885126 49.2864957,0.775341293 48.6609903,0.775341293 C47.4527898,0.775341293 46.4729106,1.8265709 46.4729106,3.02050136 C46.4729106,4.21443181 47.4599248,5.26566142 48.6752604,5.26566142 C49.2864957,5.26566142 49.883461,4.97788137 50.3163202,4.54502212 L50.3163202,5.29420159 C49.8477858,5.63192694 49.2722257,5.82695143 48.6966656,5.82695143 C47.1626314,5.82695143 45.8688104,4.58307568 45.8688104,3.04190648 C45.8688104,1.50073729 47.1436046,0.214051277 48.6966656,0.214051277 C49.3007658,0.214051277 49.8335157,0.387670646 50.3163202,0.746801123 L50.3163202,1.49598059 L50.3163202,1.49598059 Z" id="Path"></path>
                    <path d="M54.5188603,1.36754983 C54.3024307,0.994149265 54.0431908,0.77771964 53.5841697,0.77771964 C53.1251486,0.77771964 52.6851544,1.12258003 52.6851544,1.61965466 C52.6851544,2.08818913 53.1679589,2.3022404 53.5342244,2.46872473 L53.8933549,2.62807401 C54.5997241,2.93725919 55.1966893,3.28925463 55.1966893,4.15259478 C55.1966893,5.10155544 54.4332398,5.82932978 53.4914142,5.82932978 C52.620939,5.82932978 51.9740284,5.26803977 51.8004091,4.42610474 L52.3902393,4.25962042 C52.4687247,4.81377539 52.8944489,5.26803977 53.4771441,5.26803977 C54.0598392,5.26803977 54.5925891,4.82091043 54.5925891,4.20967512 C54.5925891,3.5984398 54.0955144,3.36060505 53.5913048,3.12990534 L53.2607145,2.98482614 C52.628074,2.69704609 52.0810541,2.37359083 52.0810541,1.59587119 C52.0810541,0.753936165 52.7945583,0.214051277 53.5984398,0.214051277 C54.2025401,0.214051277 54.7138848,0.523236455 55.0016648,1.0559863 L54.5188603,1.36517148 L54.5188603,1.36754983 Z" id="Path"></path>
                    <path d="M60.3434334,5.73419588 L59.7393331,5.73419588 L59.7393331,0.309185178 L60.6312134,0.309185178 C61.0997479,0.309185178 61.5801741,0.323455263 61.9773581,0.596965229 C62.3792989,0.877610236 62.5885934,1.35327974 62.5885934,1.83370594 C62.5885934,2.27370023 62.407839,2.71845122 62.0701137,2.99909623 C61.7038482,3.30114636 61.2353137,3.3582267 60.7810493,3.3582267 L60.341055,3.3582267 L60.341055,5.73419588 L60.3434334,5.73419588 Z M60.3434334,2.79693669 L60.7477525,2.79693669 C61.4160681,2.79693669 61.9844932,2.59477715 61.9844932,1.81943586 C61.9844932,0.934690577 61.2709889,0.870475194 60.566998,0.870475194 L60.3434334,0.870475194 L60.3434334,2.79931504 L60.3434334,2.79693669 Z" id="Shape"></path>
                    <path d="M64.3152737,4.19540503 L63.6612282,5.73657423 L63.0000476,5.73657423 L65.5044475,0.0523236455 L67.9446321,5.73657423 L67.2763164,5.73657423 L66.6365409,4.19540503 L64.3200304,4.19540503 L64.3152737,4.19540503 Z M65.4877991,1.46030538 L64.5602435,3.63411502 L66.3963278,3.63411502 L65.4901774,1.46030538 L65.4877991,1.46030538 Z" id="Shape"></path>
                    <path d="M69.8592018,5.73419588 L69.2551016,5.73419588 L69.2551016,0.309185178 L70.0399562,0.309185178 C71.0697807,0.309185178 72.0258764,0.582695143 72.0258764,1.80516577 C72.0258764,2.63996575 71.5002616,3.22979594 70.6654616,3.30114636 L72.3921419,5.73419588 L71.6500975,5.73419588 L70.0090377,3.35109166 L69.8568235,3.35109166 L69.8568235,5.73419588 L69.8592018,5.73419588 Z M69.8592018,2.82072016 L70.0470913,2.82072016 C70.7320554,2.82072016 71.4217761,2.6922894 71.4217761,1.85035437 C71.4217761,0.958474052 70.7677306,0.872853541 70.0399562,0.872853541 L69.8592018,0.872853541 L69.8592018,2.82309851 L69.8592018,2.82072016 Z" id="Shape"></path>
                    <polygon id="Path" points="75.1700518 5.73419588 74.5659516 5.73419588 74.5659516 0.870475194 73.2554821 0.870475194 73.2554821 0.309185178 76.4947914 0.309185178 76.4947914 0.870475194 75.1700518 0.870475194"></polygon>
                    <polygon id="Path" points="77.8694763 0.0784854683 82.1005565 4.51172525 82.1005565 0.309185178 82.7046568 0.309185178 82.7046568 5.97916568 78.4735766 1.55306093 78.4735766 5.73419588 77.8694763 5.73419588 77.8694763 0.0784854683"></polygon>
                    <polygon id="Path" points="84.5550112 0.309185178 87.3685963 0.309185178 87.3685963 0.870475194 85.1591114 0.870475194 85.1591114 2.48299482 87.3043809 2.48299482 87.3043809 3.04428483 85.1591114 3.04428483 85.1591114 5.17528421 87.3685963 5.17528421 87.3685963 5.73657423 84.5550112 5.73657423 84.5550112 0.311563526"></polygon>
                    <path d="M89.7231603,5.73419588 L89.1190601,5.73419588 L89.1190601,0.309185178 L89.9039148,0.309185178 C90.9337392,0.309185178 91.8898349,0.582695143 91.8898349,1.80516577 C91.8898349,2.63996575 91.3642201,3.22979594 90.5294202,3.30114636 L92.2561005,5.73419588 L91.514056,5.73419588 L89.8729962,3.35109166 L89.720782,3.35109166 L89.720782,5.73419588 L89.7231603,5.73419588 Z M89.7231603,2.82072016 L89.9110498,2.82072016 C90.5960139,2.82072016 91.2857347,2.6922894 91.2857347,1.85035437 C91.2857347,0.958474052 90.6316891,0.872853541 89.9039148,0.872853541 L89.7231603,0.872853541 L89.7231603,2.82309851 L89.7231603,2.82072016 Z" id="Shape"></path>
                </g>
                <g id="Group" transform="translate(3.060933, 0.000000)">
                    <path d="M75.3674547,-6.75967023e-15 C75.3674547,-6.75967023e-15 75.3365362,-6.75967023e-15 75.3317795,-6.75967023e-15 C74.6491937,0.0095133901 74.1354707,0.563668363 74.0997955,1.2462541 C74.0783903,1.66722161 74.2448747,2.05964896 74.6277886,2.26656519 C74.7229225,2.32364553 74.9155687,2.39975265 75.0606479,2.46158969 C77.757694,3.59606146 80.1955002,6.51429387 80.9851115,9.72744137 C81.5368882,8.77372402 81.8532084,7.66779242 81.8532084,6.4857537 C81.8532084,2.90396233 78.9492461,-6.75967023e-15 75.3674547,-6.75967023e-15 L75.3674547,-6.75967023e-15 Z" id="Path" fill="#0061AF"></path>
                    <g transform="translate(0.000000, 3.225039)" fill="#0067B4" id="Path">
                        <path d="M29.2608096,31.7057508 L29.2608096,34.7500357 L37.8823194,34.7500357 L37.8823194,31.1468392 C35.3303525,31.5226181 32.7736289,31.7128859 30.228797,31.7128859 C29.9053418,31.7128859 29.5818865,31.7105075 29.2584312,31.7057508 L29.2608096,31.7057508 Z"></path>
                        <path d="M36.9309804,26.9490558 C37.2496789,26.9062455 37.5683775,26.8610569 37.8846977,26.81349 L37.8846977,1.78613899 C37.8846977,0.799124768 37.0855729,1.35193405e-14 36.0985587,1.35193405e-14 L31.0469486,1.35193405e-14 C30.0599344,1.35193405e-14 29.2608096,0.799124768 29.2608096,1.78613899 L29.2608096,27.4104552 C31.8127765,27.4389954 34.3766351,27.2867811 36.928602,26.9490558 L36.9309804,26.9490558 Z"></path>
                        <path d="M48.31613,20.9270799 L54.5426438,20.9270799 L56.371593,15.8041193 L56.371593,15.8041193 C56.4381867,15.6162298 56.4762403,15.4140703 56.4762403,15.2023974 C56.4762403,14.2463017 55.7246825,13.468582 54.7804785,13.4210151 L48.3185083,13.4210151 L48.3185083,7.61546877 L59.2969605,7.61546877 L61.1378015,2.45921134 L61.175855,2.3521857 C61.2258003,2.18807972 61.2543405,2.01208201 61.2543405,1.82894925 C61.2543405,0.841935024 60.4552157,0.0428102554 59.4682015,0.0428102554 L41.4807592,0.0428102554 C40.4937449,0.0428102554 39.6946202,0.841935024 39.6946202,1.82894925 L39.6946202,26.5066832 C42.6604195,25.9572849 45.5429767,25.1652952 48.31613,24.1497408 L48.31613,20.9223232 L48.31613,20.9270799 Z"></path>
                        <path d="M39.6922418,30.8471674 L39.6922418,34.7500357 L48.3137516,34.7500357 L48.3137516,28.5259002 C47.2339818,28.9135709 46.1375636,29.2727013 45.0268753,29.5913999 C43.2550064,30.1027446 41.4760025,30.5189554 39.6898635,30.844789 L39.6922418,30.8471674 Z"></path>
                        <path d="M74.5088712,2.83023355 L73.9761214,1.32236122 C73.959473,1.27003758 73.9428245,1.21771393 73.9214194,1.16776863 L73.9071493,1.12495838 L73.9023926,1.12495838 C73.6978547,0.649288874 73.295914,0.280645008 72.796461,0.126052419 C72.796461,0.126052419 72.7917043,0.126052419 72.7917043,0.126052419 C72.7393807,0.109403986 72.6846787,0.095133901 72.6299767,0.0856205109 C72.618085,0.0856205109 72.6085716,0.0832421633 72.5966798,0.0808638158 C72.5514912,0.0713504257 72.5039243,0.0642153832 72.4563573,0.0594586881 C72.4373305,0.0594586881 72.4183038,0.0594586881 72.4016553,0.0547019931 C72.3683585,0.0523236455 72.3350616,0.0475669505 72.2993864,0.0475669505 C72.2874946,0.0475669505 72.2779813,0.0475669505 72.2684679,0.0475669505 C72.2589545,0.0475669505 72.2470627,0.0475669505 72.2375494,0.0475669505 L65.706607,0.0475669505 C64.9598059,0.0475669505 64.3224088,0.506588023 64.0560339,1.1558769 L63.9989535,1.31522618 L57.3942825,19.8163916 C64.4080293,15.5924464 70.3087095,9.78452171 74.5112496,2.8326119 L74.5088712,2.83023355 Z"></path>
                        <path d="M75.7622604,6.36921467 C74.0379584,9.16615136 72.0567949,11.7966037 69.8425534,14.2177615 L71.8641488,20.5132474 L65.8683347,20.5132474 L66.9956714,17.0979404 C63.5399325,20.3420064 59.6441992,23.1413214 55.4036056,25.3936165 L52.0644057,34.7500357 L61.175855,34.7500357 L63.4115017,27.9717452 L74.2615231,27.9717452 L76.4377111,34.7500357 L85.8155354,34.7500357 L75.7670171,6.36921467 L75.7622604,6.36921467 Z"></path>
                        <path d="M8.48356562,25.4697236 C8.25524426,25.0463778 8.08162489,24.3067117 7.94605908,23.3934262 L7.83665509,22.6941921 L0,22.6941921 L0.00713504257,23.5670456 C0.0309185178,27.0893783 1.35327974,29.8910717 3.9385435,31.898397 C6.46197022,33.8581554 9.92246587,34.8380345 14.2296532,34.807116 C18.4631118,34.7761975 21.7999334,33.7297246 24.1497408,31.6938591 C24.2306046,31.624887 24.3043333,31.5535366 24.3828188,31.4821862 C20.3919517,31.1373258 16.308329,30.4261999 12.6575655,28.7518432 C9.7940351,27.4389954 9.09717928,26.6065738 8.48594397,25.4697236 L8.48356562,25.4697236 Z"></path>
                        <path d="M27.7600723,23.8857442 C27.7386672,20.831946 26.6707891,18.4607335 24.5826,16.8363221 C23.2602388,15.808876 21.3694525,15.0240213 18.8079722,14.4389478 L13.290206,13.1784236 C10.7501308,12.6028635 9.73695476,12.2175712 9.32550064,11.9892499 C8.57156448,11.5849308 8.23146078,11.0426676 8.22670409,10.2292727 C8.21956904,9.28982543 8.58583456,8.60486134 9.38020264,8.07448984 C10.2625696,7.48228131 11.4993103,7.17785283 13.0547496,7.16596109 C14.4698663,7.1564477 15.6590401,7.38239071 16.5842173,7.83665509 C17.882795,8.48356562 18.5677591,9.56333539 18.6771631,11.1425582 L18.7318651,11.9083861 L26.704086,11.9083861 L26.6684108,11.004614 C26.5185749,7.41568758 25.1343766,4.64015602 22.5514912,2.75174809 C20.0375779,0.915663797 16.979023,-0.00475669505 13.4638253,0.0214051277 C9.25890691,0.049945298 6.01008419,1.08452647 3.80535604,3.09423013 C1.57446606,5.12771726 0.454264377,7.70346763 0.475669505,10.7501308 C0.49945298,14.1107359 1.70765352,16.6222708 4.06459592,18.211007 C5.4250107,19.1385625 7.77957475,19.9519574 11.2638539,20.6963802 L14.6696475,21.4193978 C16.5604338,21.8094468 17.9422537,22.2589545 18.7675403,22.7512724 C19.4334776,23.1579698 19.7474195,23.6907197 19.7521762,24.4303858 C19.7569329,25.2009704 19.5476383,25.8193407 19.107644,26.314037 C21.7690149,26.8658136 24.4803311,27.210674 27.2130524,27.3462398 C27.5840746,26.2712268 27.771964,25.1153499 27.7624506,23.8833658 L27.7600723,23.8857442 Z"></path>
                    </g>
                </g>
            </g>
        </g>
    </g>
</svg>